<svg width="1304" height="147" viewBox="0 0 1304 147" fill="none" xmlns="http://www.w3.org/2000/svg">
<path d="M98.4409 29.9395H67.145L66.8604 113.96L31.8652 114.245V29.9395H0V0.318848H98.4409V29.9395Z" fill="#EB0028"/>
<path d="M103.847 0.717285C104.131 0.489433 125.754 0.375664 199.443 0.603516V29.6548L138.842 29.9395V43.6104H199.728V70.9526H138.842V84.624L199.443 84.9087V113.96L103.562 114.245L103.449 57.6807C103.392 26.5231 103.562 0.890177 103.847 0.717285Z" fill="#EB0028"/>
<path fill-rule="evenodd" clip-rule="evenodd" d="M238.876 0.489746C266.929 0.660635 272.847 0.888387 275.977 1.62891C278.025 2.14157 280.813 2.939 282.236 3.45166C283.658 3.96435 286.333 5.16056 288.21 6.12891C290.088 7.09727 293.161 9.0341 295.039 10.5151C296.859 11.9392 299.705 14.7301 301.298 16.6099C302.834 18.5466 305.224 22.1356 306.476 24.585C307.785 27.0913 309.378 30.6232 310.004 32.5029C310.63 34.3827 311.597 37.8574 312.109 40.1929C312.735 42.9271 313.191 48.1676 313.361 54.7183C313.589 62.5792 313.475 66.225 312.792 70.3833C312.28 73.3453 311.199 77.8452 310.346 80.3516C309.549 82.8579 308.012 86.5607 306.931 88.6113C305.85 90.662 303.801 93.8522 302.265 95.7319C300.786 97.6117 297.884 100.517 295.835 102.168C293.844 103.82 289.917 106.327 287.072 107.694C284.227 109.118 279.39 110.884 276.261 111.681C273.131 112.479 268.124 113.39 265.165 113.675C262.206 113.96 247.525 114.245 205.417 114.245L205.475 0.261719L238.876 0.489746ZM240.128 84.6245C254.467 84.6245 259.702 84.34 261.011 84.0552C262.377 83.7703 264.653 82.9155 266.132 82.2319C267.612 81.5484 269.945 79.8964 271.253 78.5293C272.619 77.2191 274.269 74.8839 275.066 73.4028C275.806 71.9218 276.887 69.1308 277.399 67.251C278.139 64.8016 278.423 61.8964 278.423 56.9976C278.423 51.0164 278.195 49.706 276.887 46.1743C276.09 44.0098 274.611 41.0481 273.644 39.624C272.676 38.2569 270.684 36.2062 269.262 35.0669C267.782 33.9846 265.051 32.4466 263.173 31.7061C260.101 30.4529 258.678 30.282 249.972 30.0542L240.242 29.8262L240.128 84.6245Z" fill="#EB0028"/>
<path d="M345.91 4.19238C347.105 6.30006 349.21 10.0023 350.576 12.4517C351.941 14.9007 353.25 16.7236 353.478 16.4395C353.705 16.2116 355.924 12.5087 362.752 0.603516L375.328 0.432617C383.578 0.375664 387.959 0.489565 388.017 0.888184C388.017 1.173 383.01 8.80616 376.864 17.8633C370.719 26.8629 365.712 34.4957 365.711 34.7812C365.711 35.123 369.012 40.2497 372.995 46.1738C377.035 52.1549 382.327 59.9592 384.774 63.5479C387.221 67.1364 389.212 70.2694 389.212 70.5542C389.21 70.7819 383.52 70.839 376.58 70.7251C364.972 70.5542 363.834 70.44 363.151 69.4717C362.752 68.8449 360.305 64.9142 353.193 53.0093L352.226 54.7183C351.657 55.6866 349.38 59.5603 343.121 70.3833L339.593 70.6108C337.602 70.7248 331.912 70.7251 326.904 70.5542C321.897 70.4403 317.686 70.2121 317.515 70.0981C317.345 69.9271 317.629 69.3578 318.141 68.8452C318.653 68.2756 322.067 63.3195 325.766 57.8511C329.465 52.3826 334.415 45.0914 336.805 41.6167C339.138 38.199 341.073 35.123 341.016 34.7812C341.015 34.4957 336.293 27.3186 330.489 18.8315C324.742 10.4013 319.507 2.76833 318.938 1.91357L317.856 0.318848H343.69L345.91 4.19238Z" fill="#EB0028"/>
<path d="M430.043 114.262V104.22L491.637 12.2742H429.373V0H508.151V10.0426L446.557 101.988H508.821V114.262H430.043Z" fill="white"/>
<path d="M540.27 62.7103V114.262H527.103V0H540.27V41.9556H541.386C543.394 37.5294 546.407 34.0145 550.424 31.4109C554.478 28.7701 559.871 27.4497 566.604 27.4497C572.443 27.4497 577.557 28.6213 581.946 30.9646C586.335 33.2707 589.739 36.8227 592.156 41.6209C594.611 46.3818 595.839 52.4445 595.839 59.8091V114.262H582.672V60.7017C582.672 53.8951 580.905 48.6321 577.371 44.9126C573.875 41.1559 569.021 39.2776 562.81 39.2776C558.495 39.2776 554.627 40.1889 551.205 42.0114C547.82 43.834 545.142 46.4934 543.171 49.9897C541.237 53.486 540.27 57.7262 540.27 62.7103Z" fill="white"/>
<path d="M652.715 116.047C644.458 116.047 637.335 114.225 631.346 110.58C625.395 106.898 620.802 101.765 617.566 95.1812C614.367 88.5606 612.768 80.8613 612.768 72.0833C612.768 63.3054 614.367 55.5689 617.566 48.8738C620.802 42.1416 625.302 36.8971 631.067 33.1405C636.87 29.3466 643.639 27.4497 651.376 27.4497C655.839 27.4497 660.247 28.1936 664.598 29.6814C668.95 31.1692 672.911 33.5868 676.482 36.9343C680.053 40.2447 682.898 44.6336 685.018 50.1013C687.138 55.5689 688.198 62.3011 688.198 70.298V75.8772H622.141V64.4956H674.808C674.808 59.6603 673.841 55.3457 671.907 51.5518C670.01 47.758 667.295 44.7638 663.762 42.5693C660.265 40.3748 656.137 39.2776 651.376 39.2776C646.131 39.2776 641.594 40.5794 637.762 43.183C633.969 45.7495 631.049 49.097 629.003 53.2256C626.957 57.3542 625.935 61.7804 625.935 66.5041V74.0918C625.935 80.5637 627.05 86.0499 629.282 90.5505C631.551 95.0138 634.694 98.4172 638.711 100.76C642.728 103.066 647.396 104.22 652.715 104.22C656.174 104.22 659.298 103.736 662.088 102.769C664.915 101.765 667.351 100.277 669.397 98.3056C671.442 96.2971 673.023 93.805 674.139 90.8294L686.859 94.4001C685.52 98.7147 683.27 102.509 680.109 105.782C676.947 109.018 673.042 111.547 668.392 113.369C663.743 115.155 658.517 116.047 652.715 116.047Z" fill="white"/>
<path d="M718.253 62.7103V114.262H705.086V28.5655H717.806V41.9556H718.922C720.931 37.6038 723.98 34.1075 728.072 31.4667C732.163 28.7887 737.445 27.4497 743.917 27.4497C749.719 27.4497 754.796 28.6399 759.148 31.0204C763.5 33.3636 766.885 36.9343 769.302 41.7324C771.72 46.4934 772.929 52.5189 772.929 59.8091V114.262H759.762V60.7017C759.762 53.9695 758.014 48.7251 754.517 44.9684C751.021 41.1745 746.223 39.2776 740.123 39.2776C735.92 39.2776 732.163 40.1889 728.853 42.0114C725.58 43.834 722.995 46.4934 721.098 49.9897C719.201 53.486 718.253 57.7262 718.253 62.7103Z" fill="white"/>
<path d="M799.259 146.398C797.027 146.398 795.037 146.212 793.289 145.84C791.541 145.506 790.332 145.171 789.662 144.836L793.01 133.231C796.209 134.05 799.035 134.347 801.49 134.124C803.945 133.901 806.121 132.804 808.018 130.832C809.952 128.898 811.719 125.755 813.318 121.403L815.773 114.708L784.083 28.5655H798.366L822.022 96.855H822.914L846.57 28.5655H860.853L824.477 126.76C822.84 131.186 820.813 134.849 818.395 137.751C815.978 140.689 813.169 142.865 809.971 144.278C806.809 145.692 803.238 146.398 799.259 146.398Z" fill="white"/>
<path d="M935.792 47.758L923.964 51.1055C923.22 49.1342 922.123 47.2187 920.672 45.3589C919.259 43.462 917.325 41.8998 914.87 40.6724C912.415 39.445 909.272 38.8313 905.441 38.8313C900.197 38.8313 895.826 40.0401 892.33 42.4577C888.871 44.8382 887.141 47.8696 887.141 51.5518C887.141 54.825 888.331 57.41 890.712 59.3069C893.092 61.2039 896.812 62.7846 901.87 64.0493L914.591 67.1736C922.253 69.0334 927.962 71.8787 931.719 75.7098C935.476 79.5037 937.354 84.3948 937.354 90.3831C937.354 95.2928 935.941 99.6818 933.114 103.55C930.324 107.418 926.419 110.468 921.397 112.7C916.376 114.932 910.537 116.047 903.879 116.047C895.138 116.047 887.904 114.151 882.176 110.357C876.448 106.563 872.821 101.021 871.296 93.7306L883.794 90.6063C884.984 95.2184 887.234 98.6775 890.544 100.984C893.892 103.29 898.262 104.443 903.656 104.443C909.793 104.443 914.665 103.141 918.273 100.537C921.918 97.8964 923.741 94.7349 923.741 91.0526C923.741 88.077 922.699 85.585 920.616 83.5765C918.533 81.5308 915.335 80.0058 911.02 79.0015L896.737 75.654C888.889 73.7943 883.124 70.9117 879.442 67.0062C875.797 63.0636 873.974 58.1353 873.974 52.2214C873.974 47.386 875.332 43.1087 878.047 39.3892C880.799 35.6697 884.538 32.7499 889.261 30.6298C894.022 28.5097 899.415 27.4497 905.441 27.4497C913.921 27.4497 920.579 29.3094 925.414 33.0289C930.287 36.7484 933.746 41.6581 935.792 47.758Z" fill="white"/>
<path d="M996.862 114.262V0H1035.47C1044.43 0 1051.76 1.61797 1057.45 4.85391C1063.18 8.05265 1067.42 12.3858 1070.17 17.8535C1072.93 23.3211 1074.3 29.421 1074.3 36.1532C1074.3 42.8855 1072.93 49.004 1070.17 54.5088C1067.46 60.0136 1063.25 64.4026 1057.56 67.6757C1051.87 70.9117 1044.58 72.5297 1035.69 72.5297H1008.02V60.2554H1035.25C1041.38 60.2554 1046.31 59.1954 1050.03 57.0753C1053.75 54.9552 1056.45 52.0912 1058.12 48.4833C1059.83 44.8382 1060.69 40.7282 1060.69 36.1532C1060.69 31.5783 1059.83 27.4869 1058.12 23.879C1056.45 20.2711 1053.73 17.4443 1049.98 15.3986C1046.22 13.3157 1041.24 12.2742 1035.02 12.2742H1010.7V114.262H996.862Z" fill="white"/>
<path d="M1116.88 116.271C1111.45 116.271 1106.52 115.248 1102.1 113.202C1097.67 111.119 1094.16 108.125 1091.55 104.22C1088.95 100.277 1087.65 95.516 1087.65 89.9368C1087.65 85.0271 1088.61 81.0472 1090.55 77.9973C1092.48 74.9101 1095.07 72.4925 1098.3 70.7443C1101.54 68.9962 1105.11 67.6943 1109.01 66.8389C1112.96 65.9462 1116.92 65.2395 1120.9 64.7188C1126.11 64.0493 1130.33 63.5471 1133.56 63.2124C1136.84 62.8404 1139.22 62.2267 1140.7 61.3712C1142.23 60.5158 1142.99 59.028 1142.99 56.9079V56.4615C1142.99 50.9567 1141.49 46.6793 1138.47 43.6294C1135.5 40.5794 1130.98 39.0544 1124.92 39.0544C1118.63 39.0544 1113.7 40.4306 1110.13 43.183C1106.56 45.9354 1104.05 48.8738 1102.6 51.9982L1090.1 47.5348C1092.33 42.3276 1095.31 38.2733 1099.03 35.3722C1102.78 32.4338 1106.88 30.3881 1111.3 29.235C1115.77 28.0448 1120.15 27.4497 1124.47 27.4497C1127.22 27.4497 1130.38 27.7844 1133.95 28.4539C1137.56 29.0862 1141.04 30.4067 1144.39 32.4152C1147.77 34.4237 1150.58 37.4551 1152.81 41.5093C1155.04 45.5635 1156.16 50.9939 1156.16 57.8006V114.262H1142.99V102.657H1142.32C1141.43 104.517 1139.94 106.507 1137.86 108.627C1135.78 110.747 1133 112.551 1129.55 114.039C1126.09 115.527 1121.87 116.271 1116.88 116.271ZM1118.89 104.443C1124.1 104.443 1128.49 103.42 1132.06 101.374C1135.66 99.3284 1138.38 96.6876 1140.2 93.4517C1142.06 90.2157 1142.99 86.8124 1142.99 83.2417V71.1906C1142.43 71.8602 1141.21 72.4739 1139.31 73.0318C1137.45 73.5525 1135.29 74.0174 1132.84 74.4266C1130.42 74.7985 1128.06 75.1333 1125.75 75.4308C1123.48 75.6912 1121.64 75.9144 1120.23 76.1003C1116.81 76.5467 1113.61 77.272 1110.63 78.2762C1107.69 79.2433 1105.31 80.7125 1103.49 82.6838C1101.71 84.6179 1100.81 87.2588 1100.81 90.6063C1100.81 95.1812 1102.51 98.6403 1105.89 100.984C1109.31 103.29 1113.65 104.443 1118.89 104.443Z" fill="white"/>
<path d="M1177.05 114.262V28.5655H1189.77V41.5093H1190.66C1192.22 37.2691 1195.05 33.8286 1199.14 31.1877C1203.23 28.5469 1207.85 27.2265 1212.98 27.2265C1213.95 27.2265 1215.15 27.2451 1216.61 27.2823C1218.06 27.3195 1219.15 27.3753 1219.9 27.4497V40.8398C1219.45 40.7282 1218.43 40.5608 1216.83 40.3376C1215.27 40.0773 1213.61 39.9471 1211.86 39.9471C1207.7 39.9471 1203.98 40.8212 1200.7 42.5693C1197.47 44.2803 1194.9 46.6607 1193.01 49.7107C1191.15 52.7235 1190.22 56.164 1190.22 60.0322V114.262H1177.05Z" fill="white"/>
<path d="M1244.64 83.0186L1244.41 66.7273H1247.09L1284.58 28.5655H1300.88L1260.93 68.959H1259.81L1244.64 83.0186ZM1232.36 114.262V0H1245.53V114.262H1232.36ZM1286.82 114.262L1253.34 71.8601L1262.71 62.7103L1303.55 114.262H1286.82Z" fill="white"/>
</svg>
