<svg xmlns="http://www.w3.org/2000/svg" viewBox="0 -141 395 395">
  <path d="M98.4409 29.9395H67.145L66.8604 113.96L31.8652 114.245V29.9395H0V0.318848H98.4409V29.9395Z" fill="#EB0028"/>
  <path d="M103.847 0.717285C104.131 0.489433 125.754 0.375664 199.443 0.603516V29.6548L138.842 29.9395V43.6104H199.728V70.9526H138.842V84.624L199.443 84.9087V113.96L103.562 114.245L103.449 57.6807C103.392 26.5231 103.562 0.890177 103.847 0.717285Z" fill="#EB0028"/>
  <path fill-rule="evenodd" clip-rule="evenodd" d="M238.876 0.489746C266.929 0.660635 272.847 0.888387 275.977 1.62891C278.025 2.14157 280.813 2.939 282.236 3.45166C283.658 3.96435 286.333 5.16056 288.21 6.12891C290.088 7.09727 293.161 9.0341 295.039 10.5151C296.859 11.9392 299.705 14.7301 301.298 16.6099C302.834 18.5466 305.224 22.1356 306.476 24.585C307.785 27.0913 309.378 30.6232 310.004 32.5029C310.63 34.3827 311.597 37.8574 312.109 40.1929C312.735 42.9271 313.191 48.1676 313.361 54.7183C313.589 62.5792 313.475 66.225 312.792 70.3833C312.28 73.3453 311.199 77.8452 310.346 80.3516C309.549 82.8579 308.012 86.5607 306.931 88.6113C305.85 90.662 303.801 93.8522 302.265 95.7319C300.786 97.6117 297.884 100.517 295.835 102.168C293.844 103.82 289.917 106.327 287.072 107.694C284.227 109.118 279.39 110.884 276.261 111.681C273.131 112.479 268.124 113.39 265.165 113.675C262.206 113.96 247.525 114.245 205.417 114.245L205.475 0.261719L238.876 0.489746ZM240.128 84.6245C254.467 84.6245 259.702 84.34 261.011 84.0552C262.377 83.7703 264.653 82.9155 266.132 82.2319C267.612 81.5484 269.945 79.8964 271.253 78.5293C272.619 77.2191 274.269 74.8839 275.066 73.4028C275.806 71.9218 276.887 69.1308 277.399 67.251C278.139 64.8016 278.423 61.8964 278.423 56.9976C278.423 51.0164 278.195 49.706 276.887 46.1743C276.09 44.0098 274.611 41.0481 273.644 39.624C272.676 38.2569 270.684 36.2062 269.262 35.0669C267.782 33.9846 265.051 32.4466 263.173 31.7061C260.101 30.4529 258.678 30.282 249.972 30.0542L240.242 29.8262L240.128 84.6245Z" fill="#EB0028"/>
  <path d="M345.91 4.19238C347.105 6.30006 349.21 10.0023 350.576 12.4517C351.941 14.9007 353.25 16.7236 353.478 16.4395C353.705 16.2116 355.924 12.5087 362.752 0.603516L375.328 0.432617C383.578 0.375664 387.959 0.489565 388.017 0.888184C388.017 1.173 383.01 8.80616 376.864 17.8633C370.719 26.8629 365.712 34.4957 365.711 34.7812C365.711 35.123 369.012 40.2497 372.995 46.1738C377.035 52.1549 382.327 59.9592 384.774 63.5479C387.221 67.1364 389.212 70.2694 389.212 70.5542C389.21 70.7819 383.52 70.839 376.58 70.7251C364.972 70.5542 363.834 70.44 363.151 69.4717C362.752 68.8449 360.305 64.9142 353.193 53.0093L352.226 54.7183C351.657 55.6866 349.38 59.5603 343.121 70.3833L339.593 70.6108C337.602 70.7248 331.912 70.7251 326.904 70.5542C321.897 70.4403 317.686 70.2121 317.515 70.0981C317.345 69.9271 317.629 69.3578 318.141 68.8452C318.653 68.2756 322.067 63.3195 325.766 57.8511C329.465 52.3826 334.415 45.0914 336.805 41.6167C339.138 38.199 341.073 35.123 341.016 34.7812C341.015 34.4957 336.293 27.3186 330.489 18.8315C324.742 10.4013 319.507 2.76833 318.938 1.91357L317.856 0.318848H343.69L345.91 4.19238Z" fill="#EB0028"/>
</svg>
