<svg width="875" height="301" viewBox="0 0 875 301" fill="none" xmlns="http://www.w3.org/2000/svg">
<path d="M98.4409 29.6777H67.145L66.8604 113.698L31.8652 113.983V29.6777H0V0.0571289H98.4409V29.6777Z" fill="#EB0028"/>
<path d="M103.847 0.455566C104.131 0.227714 125.754 0.113945 199.443 0.341797V29.3931L138.842 29.6777V43.3486H199.728V70.6909H138.842V84.3623L199.443 84.647V113.698L103.562 113.983L103.449 57.4189C103.392 26.2614 103.562 0.628459 103.847 0.455566Z" fill="#EB0028"/>
<path fill-rule="evenodd" clip-rule="evenodd" d="M238.876 0.228027C266.929 0.398916 272.847 0.626669 275.977 1.36719C278.025 1.87986 280.813 2.67729 282.236 3.18994C283.658 3.70263 286.333 4.89884 288.21 5.86719C290.088 6.83555 293.161 8.77239 295.039 10.2534C296.859 11.6774 299.705 14.4684 301.298 16.3481C302.834 18.2849 305.224 21.8738 306.476 24.3232C307.785 26.8296 309.378 30.3614 310.004 32.2412C310.63 34.121 311.597 37.5957 312.109 39.9312C312.735 42.6654 313.191 47.9059 313.361 54.4565C313.589 62.3174 313.475 65.9633 312.792 70.1216C312.28 73.0836 311.199 77.5835 310.346 80.0898C309.549 82.5962 308.012 86.2989 306.931 88.3496C305.85 90.4003 303.801 93.5905 302.265 95.4702C300.786 97.35 297.884 100.255 295.835 101.907C293.844 103.559 289.917 106.065 287.072 107.432C284.227 108.856 279.39 110.622 276.261 111.419C273.131 112.217 268.124 113.129 265.165 113.414C262.206 113.698 247.525 113.983 205.417 113.983L205.475 0L238.876 0.228027ZM240.128 84.3628C254.467 84.3628 259.702 84.0783 261.011 83.7935C262.377 83.5086 264.653 82.6538 266.132 81.9702C267.612 81.2866 269.945 79.6347 271.253 78.2676C272.619 76.9574 274.269 74.6221 275.066 73.1411C275.806 71.6601 276.887 68.869 277.399 66.9893C278.139 64.5399 278.423 61.6346 278.423 56.7358C278.423 50.7547 278.195 49.4443 276.887 45.9126C276.09 43.7481 274.611 40.7864 273.644 39.3623C272.676 37.9952 270.684 35.9444 269.262 34.8052C267.782 33.7229 265.051 32.1848 263.173 31.4443C260.101 30.1912 258.678 30.0203 249.972 29.7925L240.242 29.5645L240.128 84.3628Z" fill="#EB0028"/>
<path d="M345.91 3.93066C347.105 6.03834 349.21 9.74063 350.576 12.1899C351.941 14.639 353.25 16.4619 353.478 16.1777C353.705 15.9499 355.924 12.247 362.752 0.341797L375.328 0.170898C383.578 0.113945 387.959 0.227846 388.017 0.626465C388.017 0.91128 383.01 8.54445 376.864 17.6016C370.719 26.6012 365.712 34.2339 365.711 34.5195C365.711 34.8613 369.012 39.988 372.995 45.9121C377.035 51.8932 382.327 59.6975 384.774 63.2861C387.221 66.8747 389.212 70.0077 389.212 70.2925C389.21 70.5202 383.52 70.5773 376.58 70.4634C364.972 70.2925 363.834 70.1783 363.151 69.21C362.752 68.5832 360.305 64.6525 353.193 52.7476L352.226 54.4565C351.657 55.4249 349.38 59.2986 343.121 70.1216L339.593 70.3491C337.602 70.4631 331.912 70.4634 326.904 70.2925C321.897 70.1786 317.686 69.9504 317.515 69.8364C317.345 69.6654 317.629 69.096 318.141 68.5835C318.653 68.0139 322.067 63.0578 325.766 57.5894C329.465 52.1209 334.415 44.8297 336.805 41.355C339.138 37.9373 341.073 34.8613 341.016 34.5195C341.015 34.234 336.293 27.0569 330.489 18.5698C324.742 10.1396 319.507 2.50661 318.938 1.65186L317.856 0.0571289H343.69L345.91 3.93066Z" fill="#EB0028"/>
<path d="M0.669504 268.262V258.22L62.2639 166.274H0V154H78.7784V164.043L17.1839 255.988H79.4479V268.262H0.669504Z" fill="white"/>
<path d="M110.897 216.71V268.262H97.7298V154H110.897V195.956H112.013C114.021 191.529 117.034 188.015 121.051 185.411C125.105 182.77 130.498 181.45 137.231 181.45C143.07 181.45 148.184 182.621 152.573 184.965C156.962 187.271 160.366 190.823 162.783 195.621C165.238 200.382 166.466 206.445 166.466 213.809V268.262H153.299V214.702C153.299 207.895 151.532 202.632 147.998 198.913C144.502 195.156 139.648 193.278 133.437 193.278C129.122 193.278 125.254 194.189 121.832 196.011C118.447 197.834 115.769 200.493 113.798 203.99C111.864 207.486 110.897 211.726 110.897 216.71Z" fill="white"/>
<path d="M223.342 270.047C215.084 270.047 207.962 268.225 201.973 264.58C196.022 260.898 191.429 255.765 188.193 249.181C184.994 242.561 183.395 234.861 183.395 226.083C183.395 217.305 184.994 209.569 188.193 202.874C191.429 196.142 195.929 190.897 201.694 187.14C207.497 183.347 214.266 181.45 222.003 181.45C226.466 181.45 230.874 182.194 235.225 183.681C239.577 185.169 243.538 187.587 247.109 190.934C250.68 194.245 253.525 198.634 255.645 204.101C257.765 209.569 258.825 216.301 258.825 224.298V229.877H192.768V218.496H245.435C245.435 213.66 244.468 209.346 242.534 205.552C240.637 201.758 237.922 198.764 234.389 196.569C230.892 194.375 226.764 193.278 222.003 193.278C216.758 193.278 212.22 194.579 208.389 197.183C204.596 199.749 201.676 203.097 199.63 207.226C197.584 211.354 196.561 215.78 196.561 220.504V228.092C196.561 234.564 197.677 240.05 199.909 244.55C202.178 249.014 205.321 252.417 209.338 254.76C213.355 257.066 218.023 258.22 223.342 258.22C226.801 258.22 229.925 257.736 232.715 256.769C235.542 255.765 237.978 254.277 240.023 252.306C242.069 250.297 243.65 247.805 244.766 244.829L257.486 248.4C256.147 252.715 253.897 256.509 250.736 259.782C247.574 263.018 243.669 265.547 239.019 267.369C234.37 269.155 229.144 270.047 223.342 270.047Z" fill="white"/>
<path d="M288.879 216.71V268.262H275.713V182.566H288.433V195.956H289.549C291.557 191.604 294.607 188.108 298.699 185.467C302.79 182.789 308.072 181.45 314.544 181.45C320.346 181.45 325.423 182.64 329.775 185.02C334.127 187.364 337.512 190.934 339.929 195.732C342.347 200.493 343.556 206.519 343.556 213.809V268.262H330.389V214.702C330.389 207.97 328.641 202.725 325.144 198.968C321.648 195.175 316.85 193.278 310.75 193.278C306.547 193.278 302.79 194.189 299.48 196.011C296.207 197.834 293.622 200.493 291.725 203.99C289.828 207.486 288.879 211.726 288.879 216.71Z" fill="white"/>
<path d="M369.886 300.398C367.654 300.398 365.664 300.212 363.916 299.84C362.168 299.506 360.959 299.171 360.289 298.836L363.637 287.231C366.836 288.05 369.662 288.347 372.117 288.124C374.572 287.901 376.748 286.804 378.645 284.832C380.579 282.898 382.346 279.755 383.945 275.403L386.4 268.708L354.71 182.566H368.993L392.649 250.855H393.541L417.197 182.566H431.48L395.104 280.76C393.467 285.186 391.44 288.849 389.022 291.751C386.605 294.689 383.796 296.865 380.598 298.278C377.436 299.692 373.865 300.398 369.886 300.398Z" fill="white"/>
<path d="M506.419 201.758L494.591 205.106C493.847 203.134 492.75 201.219 491.299 199.359C489.886 197.462 487.952 195.9 485.497 194.672C483.042 193.445 479.899 192.831 476.068 192.831C470.823 192.831 466.453 194.04 462.957 196.458C459.498 198.838 457.768 201.87 457.768 205.552C457.768 208.825 458.958 211.41 461.339 213.307C463.719 215.204 467.439 216.785 472.497 218.049L485.218 221.174C492.88 223.033 498.589 225.879 502.346 229.71C506.103 233.504 507.981 238.395 507.981 244.383C507.981 249.293 506.568 253.682 503.741 257.55C500.951 261.418 497.046 264.468 492.024 266.7C487.003 268.932 481.164 270.047 474.506 270.047C465.765 270.047 458.531 268.151 452.803 264.357C447.075 260.563 443.448 255.021 441.923 247.731L454.421 244.606C455.611 249.218 457.861 252.678 461.171 254.984C464.519 257.29 468.889 258.443 474.283 258.443C480.42 258.443 485.292 257.141 488.9 254.537C492.545 251.896 494.368 248.735 494.368 245.053C494.368 242.077 493.326 239.585 491.243 237.576C489.16 235.531 485.962 234.006 481.647 233.002L467.364 229.654C459.516 227.794 453.751 224.912 450.069 221.006C446.424 217.064 444.601 212.135 444.601 206.221C444.601 201.386 445.959 197.109 448.674 193.389C451.426 189.67 455.164 186.75 459.888 184.63C464.649 182.51 470.042 181.45 476.068 181.45C484.548 181.45 491.206 183.309 496.041 187.029C500.914 190.748 504.373 195.658 506.419 201.758Z" fill="white"/>
<path d="M567.489 268.262V154H606.097C615.061 154 622.389 155.618 628.079 158.854C633.807 162.053 638.048 166.386 640.8 171.853C643.552 177.321 644.929 183.421 644.929 190.153C644.929 196.885 643.552 203.004 640.8 208.509C638.085 214.014 633.882 218.403 628.191 221.676C622.5 224.912 615.21 226.53 606.321 226.53H578.648V214.255H605.874C612.011 214.255 616.94 213.195 620.659 211.075C624.379 208.955 627.075 206.091 628.749 202.483C630.46 198.838 631.315 194.728 631.315 190.153C631.315 185.578 630.46 181.487 628.749 177.879C627.075 174.271 624.36 171.444 620.603 169.399C616.847 167.316 611.863 166.274 605.651 166.274H581.326V268.262H567.489Z" fill="white"/>
<path d="M687.508 270.271C682.078 270.271 677.149 269.248 672.723 267.202C668.297 265.119 664.782 262.125 662.178 258.22C659.575 254.277 658.273 249.516 658.273 243.937C658.273 239.027 659.24 235.047 661.174 231.997C663.108 228.91 665.693 226.492 668.929 224.744C672.165 222.996 675.736 221.694 679.641 220.839C683.584 219.946 687.545 219.24 691.525 218.719C696.732 218.049 700.954 217.547 704.19 217.212C707.463 216.84 709.843 216.227 711.331 215.371C712.856 214.516 713.619 213.028 713.619 210.908V210.462C713.619 204.957 712.112 200.679 709.1 197.629C706.124 194.579 701.605 193.054 695.542 193.054C689.256 193.054 684.328 194.431 680.757 197.183C677.187 199.935 674.676 202.874 673.225 205.998L660.728 201.535C662.96 196.328 665.935 192.273 669.655 189.372C673.411 186.434 677.503 184.388 681.929 183.235C686.392 182.045 690.781 181.45 695.096 181.45C697.848 181.45 701.01 181.784 704.58 182.454C708.188 183.086 711.666 184.407 715.013 186.415C718.398 188.424 721.206 191.455 723.438 195.509C725.67 199.563 726.786 204.994 726.786 211.801V268.262H713.619V256.657H712.949C712.057 258.517 710.569 260.507 708.486 262.627C706.403 264.747 703.632 266.551 700.173 268.039C696.714 269.527 692.492 270.271 687.508 270.271ZM689.517 258.443C694.724 258.443 699.113 257.42 702.683 255.374C706.291 253.328 709.007 250.688 710.829 247.452C712.689 244.216 713.619 240.812 713.619 237.242V225.191C713.061 225.86 711.833 226.474 709.936 227.032C708.077 227.553 705.919 228.017 703.465 228.427C701.047 228.799 698.685 229.133 696.379 229.431C694.11 229.691 692.269 229.914 690.856 230.1C687.434 230.547 684.235 231.272 681.259 232.276C678.321 233.243 675.94 234.712 674.118 236.684C672.333 238.618 671.44 241.259 671.44 244.606C671.44 249.181 673.132 252.64 676.517 254.984C679.939 257.29 684.272 258.443 689.517 258.443Z" fill="white"/>
<path d="M747.676 268.262V182.566H760.396V195.509H761.289C762.851 191.269 765.678 187.829 769.769 185.188C773.861 182.547 778.473 181.227 783.606 181.227C784.573 181.227 785.782 181.245 787.232 181.282C788.683 181.32 789.78 181.375 790.524 181.45V194.84C790.078 194.728 789.055 194.561 787.456 194.338C785.893 194.077 784.238 193.947 782.49 193.947C778.324 193.947 774.605 194.821 771.332 196.569C768.096 198.28 765.529 200.661 763.632 203.711C761.773 206.723 760.843 210.164 760.843 214.032V268.262H747.676Z" fill="white"/>
<path d="M815.264 237.019L815.041 220.727H817.719L855.211 182.566H871.502L831.555 222.959H830.439L815.264 237.019ZM802.99 268.262V154H816.157V268.262H802.99ZM857.443 268.262L823.968 225.86L833.341 216.71L874.18 268.262H857.443Z" fill="white"/>
</svg>
