<svg width="379" height="112" viewBox="0 0 379 112" fill="none" xmlns="http://www.w3.org/2000/svg">
<path d="M27.1897 70.2046C22.2566 70.2046 17.4955 69.6023 12.9065 68.3977C8.3749 67.1357 4.67503 65.5296 1.80691 63.5793L7.39974 51.0169C10.0958 52.7378 13.1933 54.1718 16.6924 55.3191C20.2489 56.409 23.7767 56.9539 27.2758 56.9539C29.6276 56.9539 31.5206 56.7531 32.9546 56.3516C34.3887 55.8927 35.4212 55.3191 36.0522 54.6307C36.7406 53.885 37.0847 53.0246 37.0847 52.0494C37.0847 50.6727 36.4537 49.5829 35.1918 48.7798C33.9298 47.9767 32.295 47.317 30.2873 46.8008C28.2796 46.2845 26.0425 45.7683 23.5759 45.252C21.1667 44.7357 18.7288 44.0761 16.2622 43.273C13.853 42.4699 11.6445 41.4374 9.63687 40.1754C7.62919 38.8561 5.99436 37.1639 4.73239 35.0989C3.47042 32.9765 2.83943 30.3091 2.83943 27.0968C2.83943 23.483 3.81459 20.2134 5.76491 17.2879C7.77259 14.3624 10.7554 12.0105 14.7134 10.2323C18.6714 8.45408 23.6046 7.56497 29.5129 7.56497C33.4709 7.56497 37.3429 8.02387 41.1288 8.94167C44.972 9.8021 48.3851 11.0928 51.3679 12.8136L46.1193 25.462C43.2512 23.9132 40.4117 22.766 37.601 22.0203C34.7902 21.2172 32.0655 20.8157 29.4269 20.8157C27.075 20.8157 25.1821 21.0738 23.748 21.5901C22.3139 22.049 21.2814 22.6799 20.6504 23.483C20.0194 24.2861 19.704 25.2039 19.704 26.2364C19.704 27.5557 20.3063 28.6169 21.5109 29.42C22.7728 30.1657 24.4077 30.7967 26.4153 31.313C28.4804 31.7719 30.7175 32.2594 33.1267 32.7757C35.5933 33.292 38.0312 33.9516 40.4404 34.7547C42.907 35.5004 45.1441 36.5329 47.1518 37.8523C49.1595 39.1142 50.7656 40.8064 51.9703 42.9288C53.2322 44.9939 53.8632 47.6039 53.8632 50.7588C53.8632 54.2579 52.8594 57.4989 50.8517 60.4817C48.9014 63.4072 45.9472 65.759 41.9892 67.5373C38.0886 69.3155 33.1554 70.2046 27.1897 70.2046ZM61.7328 69V8.76958H78.7694V69H61.7328ZM90.8901 69V8.76958H104.915L129.868 49.7263H122.468L146.732 8.76958H160.757L160.93 69H145.27L145.098 32.6036H147.765L129.61 63.063H122.038L103.366 32.6036H106.636V69H90.8901ZM231.886 69L258.473 8.76958H275.252L301.925 69H284.2L263.378 17.1158H270.089L249.267 69H231.886ZM246.427 57.2981L250.815 44.7357H280.242L284.63 57.2981H246.427ZM300.897 36.4756L307.35 14.1043L309.673 23.397C306.805 23.397 304.453 22.5652 302.618 20.9017C300.782 19.1808 299.864 16.8863 299.864 14.0182C299.864 11.0927 300.782 8.76958 302.618 7.04871C304.51 5.27048 306.862 4.38136 309.673 4.38136C312.484 4.38136 314.807 5.27048 316.643 7.04871C318.478 8.76958 319.396 11.0927 319.396 14.0182C319.396 14.8213 319.339 15.6531 319.224 16.5135C319.109 17.3166 318.851 18.2917 318.45 19.439C318.105 20.5288 317.503 22.0203 316.643 23.9132L311.136 36.4756H300.897ZM349.853 70.2046C344.92 70.2046 340.158 69.6023 335.569 68.3977C331.038 67.1357 327.338 65.5296 324.47 63.5793L330.063 51.0169C332.759 52.7378 335.856 54.1718 339.355 55.3191C342.912 56.409 346.44 56.9539 349.939 56.9539C352.291 56.9539 354.184 56.7531 355.618 56.3516C357.052 55.8927 358.084 55.3191 358.715 54.6307C359.404 53.885 359.748 53.0246 359.748 52.0494C359.748 50.6727 359.117 49.5829 357.855 48.7798C356.593 47.9767 354.958 47.317 352.95 46.8008C350.943 46.2845 348.705 45.7683 346.239 45.252C343.83 44.7357 341.392 44.0761 338.925 43.273C336.516 42.4699 334.308 41.4374 332.3 40.1754C330.292 38.8561 328.657 37.1639 327.395 35.0989C326.133 32.9765 325.502 30.3091 325.502 27.0968C325.502 23.483 326.478 20.2134 328.428 17.2879C330.436 14.3624 333.418 12.0105 337.376 10.2323C341.334 8.45408 346.268 7.56497 352.176 7.56497C356.134 7.56497 360.006 8.02387 363.792 8.94167C367.635 9.8021 371.048 11.0928 374.031 12.8136L368.782 25.462C365.914 23.9132 363.075 22.766 360.264 22.0203C357.453 21.2172 354.728 20.8157 352.09 20.8157C349.738 20.8157 347.845 21.0738 346.411 21.5901C344.977 22.049 343.944 22.6799 343.313 23.483C342.682 24.2861 342.367 25.2039 342.367 26.2364C342.367 27.5557 342.969 28.6169 344.174 29.42C345.436 30.1657 347.071 30.7967 349.078 31.313C351.143 31.7719 353.38 32.2594 355.79 32.7757C358.256 33.292 360.694 33.9516 363.103 34.7547C365.57 35.5004 367.807 36.5329 369.815 37.8523C371.822 39.1142 373.429 40.8064 374.633 42.9288C375.895 44.9939 376.526 47.6039 376.526 50.7588C376.526 54.2579 375.522 57.4989 373.515 60.4817C371.564 63.4072 368.61 65.759 364.652 67.5373C360.752 69.3155 355.818 70.2046 349.853 70.2046Z" fill="#F5F5F5"/>
<path d="M168.125 28.5849C177.527 22.2399 189.279 24.4728 193.745 28.5849C188.143 27.175 175.176 27.8104 168.125 41.631V28.5849Z" fill="#F5F5F5"/>
<path d="M168.125 9.3125V25.178C174.941 13.1907 194.249 18.5967 197.623 22.9451C199.386 25.2172 204.11 29.4098 208.905 28.4686C213.7 27.5274 214.899 31.8759 214.899 34.1097H210.315C210.08 36.6951 211.984 37.1652 212.901 38.693C215.721 43.3939 213.136 45.7443 210.315 46.6845C203.452 47.9067 203.147 41.9836 204.322 39.3981C199.268 42.2187 201.854 47.9202 204.909 49.6226C211.491 53.2893 216.035 48.5649 217.484 45.7443C222.091 48.3768 220.579 53.7358 219.247 56.0863H205.615C201.76 48.4709 195.704 50.6411 193.157 52.6781C185.824 48.9174 187.438 41.5527 189.161 38.3405C176.352 48.4473 188.456 59.9645 194.097 59.9645C199.386 59.9645 209.023 56.9089 211.256 69.6013L218.189 69.3663C233.35 67.2509 240.636 47.2721 224.536 35.2849C234.172 17.4215 219.247 9.3125 212.666 9.3125H168.125Z" fill="#F5F5F5"/>
<path d="M202.794 34.5314L201.736 32.9344H193.51L192.335 34.3447C192.922 35.6374 193.745 36.9302 196.33 37.6353C199.433 38.4815 201.932 35.9186 202.794 34.5314Z" fill="#F5F5F5"/>
<path d="M168.125 45.1567C173.202 37.2592 181.914 35.4416 185.518 35.5199C176.681 40.7849 170.162 55.0286 168.125 61.4923V45.1567Z" fill="#F5F5F5"/>
<path d="M171.886 69.6013C169.629 58.2252 177.213 50.7586 181.287 48.4473C175.552 58.1312 178.898 66.5849 181.287 69.6013H171.886Z" fill="#F5F5F5"/>
<path d="M196.33 69.6013H185.988C181.852 64.3363 183.089 59.3377 184.226 57.4965C187.422 65.6761 193.627 68.9745 196.33 69.6013Z" fill="#F5F5F5"/>
<path opacity="0.9" d="M109.964 107.559C108.164 107.559 106.46 107.31 104.854 106.811C103.247 106.285 101.987 105.634 101.072 104.859L102.402 102.532C103.288 103.197 104.424 103.778 105.809 104.277C107.194 104.748 108.648 104.983 110.172 104.983C112.249 104.983 113.745 104.665 114.659 104.028C115.573 103.363 116.031 102.49 116.031 101.41C116.031 100.607 115.767 99.9833 115.241 99.5401C114.742 99.0692 114.078 98.723 113.247 98.5014C112.416 98.2521 111.488 98.0443 110.463 97.8781C109.438 97.7119 108.413 97.518 107.388 97.2964C106.391 97.0748 105.477 96.7563 104.646 96.3408C103.815 95.8976 103.136 95.302 102.61 94.5541C102.111 93.8062 101.862 92.809 101.862 91.5625C101.862 90.3714 102.194 89.305 102.859 88.3632C103.524 87.4214 104.493 86.6873 105.768 86.161C107.07 85.607 108.648 85.33 110.504 85.33C111.917 85.33 113.33 85.5239 114.742 85.9117C116.155 86.2718 117.319 86.7566 118.233 87.366L116.945 89.7343C115.975 89.0695 114.936 88.5986 113.828 88.3216C112.72 88.0169 111.612 87.8646 110.504 87.8646C108.538 87.8646 107.083 88.2108 106.142 88.9033C105.228 89.5681 104.77 90.4268 104.77 91.4794C104.77 92.3104 105.02 92.9614 105.518 93.4323C106.045 93.9032 106.723 94.2771 107.554 94.5541C108.413 94.8034 109.341 95.0112 110.338 95.1774C111.363 95.3436 112.374 95.5513 113.371 95.8006C114.396 96.0222 115.324 96.3408 116.155 96.7563C117.014 97.1441 117.693 97.7119 118.191 98.4598C118.717 99.18 118.981 100.136 118.981 101.327C118.981 102.601 118.62 103.709 117.9 104.651C117.208 105.565 116.183 106.285 114.826 106.811C113.496 107.31 111.876 107.559 109.964 107.559ZM142.177 107.559C140.017 107.559 138.078 107.088 136.36 106.147C134.671 105.177 133.341 103.861 132.371 102.199C131.402 100.51 130.917 98.5845 130.917 96.4239C130.917 94.2356 131.402 92.3104 132.371 90.6484C133.341 88.9864 134.671 87.6845 136.36 86.7427C138.078 85.8009 140.017 85.33 142.177 85.33C144.033 85.33 145.709 85.6901 147.205 86.4103C148.701 87.1305 149.878 88.2108 150.737 89.6512L148.534 91.147C147.787 90.039 146.859 89.2219 145.751 88.6956C144.643 88.1693 143.438 87.9061 142.136 87.9061C140.584 87.9061 139.186 88.2662 137.939 88.9864C136.693 89.6789 135.709 90.6623 134.989 91.9365C134.269 93.2107 133.909 94.7065 133.909 96.4239C133.909 98.1413 134.269 99.6371 134.989 100.911C135.709 102.185 136.693 103.183 137.939 103.903C139.186 104.595 140.584 104.942 142.136 104.942C143.438 104.942 144.643 104.679 145.751 104.152C146.859 103.626 147.787 102.823 148.534 101.742L150.737 103.238C149.878 104.651 148.701 105.731 147.205 106.479C145.709 107.199 144.033 107.559 142.177 107.559ZM164.933 107.352V76.5214H167.883V91.521L167.301 90.3991C167.994 88.8202 169.102 87.5876 170.625 86.7012C172.149 85.787 173.963 85.33 176.068 85.33C177.841 85.33 179.392 85.6762 180.722 86.3688C182.079 87.0336 183.132 88.0585 183.88 89.4435C184.655 90.8285 185.043 92.5736 185.043 94.6788V107.352H182.093V94.9696C182.093 92.6705 181.511 90.9393 180.348 89.7759C179.212 88.5848 177.606 87.9892 175.528 87.9892C173.977 87.9892 172.62 88.3078 171.456 88.9449C170.32 89.5543 169.434 90.4545 168.797 91.6456C168.188 92.809 167.883 94.2217 167.883 95.8837V107.352H164.933ZM210.629 107.559C208.524 107.559 206.626 107.088 204.936 106.147C203.274 105.177 201.959 103.861 200.989 102.199C200.02 100.51 199.535 98.5845 199.535 96.4239C199.535 94.2356 200.02 92.3104 200.989 90.6484C201.959 88.9864 203.274 87.6845 204.936 86.7427C206.598 85.8009 208.496 85.33 210.629 85.33C212.789 85.33 214.701 85.8009 216.363 86.7427C218.052 87.6845 219.368 88.9864 220.31 90.6484C221.279 92.3104 221.764 94.2356 221.764 96.4239C221.764 98.5845 221.279 100.51 220.31 102.199C219.368 103.861 218.052 105.177 216.363 106.147C214.673 107.088 212.762 107.559 210.629 107.559ZM210.629 104.942C212.208 104.942 213.607 104.595 214.825 103.903C216.044 103.183 217 102.185 217.692 100.911C218.413 99.6094 218.773 98.1136 218.773 96.4239C218.773 94.7065 218.413 93.2107 217.692 91.9365C217 90.6623 216.044 89.6789 214.825 88.9864C213.607 88.2662 212.222 87.9061 210.67 87.9061C209.119 87.9061 207.734 88.2662 206.515 88.9864C205.297 89.6789 204.327 90.6623 203.607 91.9365C202.887 93.2107 202.527 94.7065 202.527 96.4239C202.527 98.1136 202.887 99.6094 203.607 100.911C204.327 102.185 205.297 103.183 206.515 103.903C207.734 104.595 209.105 104.942 210.629 104.942ZM245.404 107.559C243.299 107.559 241.402 107.088 239.712 106.147C238.05 105.177 236.734 103.861 235.765 102.199C234.795 100.51 234.31 98.5845 234.31 96.4239C234.31 94.2356 234.795 92.3104 235.765 90.6484C236.734 88.9864 238.05 87.6845 239.712 86.7427C241.374 85.8009 243.271 85.33 245.404 85.33C247.565 85.33 249.476 85.8009 251.138 86.7427C252.828 87.6845 254.144 88.9864 255.085 90.6484C256.055 92.3104 256.54 94.2356 256.54 96.4239C256.54 98.5845 256.055 100.51 255.085 102.199C254.144 103.861 252.828 105.177 251.138 106.147C249.449 107.088 247.537 107.559 245.404 107.559ZM245.404 104.942C246.983 104.942 248.382 104.595 249.601 103.903C250.82 103.183 251.775 102.185 252.468 100.911C253.188 99.6094 253.548 98.1136 253.548 96.4239C253.548 94.7065 253.188 93.2107 252.468 91.9365C251.775 90.6623 250.82 89.6789 249.601 88.9864C248.382 88.2662 246.997 87.9061 245.446 87.9061C243.895 87.9061 242.51 88.2662 241.291 88.9864C240.072 89.6789 239.103 90.6623 238.382 91.9365C237.662 93.2107 237.302 94.7065 237.302 96.4239C237.302 98.1136 237.662 99.6094 238.382 100.911C239.103 102.185 240.072 103.183 241.291 103.903C242.51 104.595 243.881 104.942 245.404 104.942ZM271.288 107.352V76.5214H274.238V107.352H271.288Z" fill="#F5F5F5"/>
</svg>
